<svg xmlns="http://www.w3.org/2000/svg" viewBox="0 0 100 100">
  <defs>
    <linearGradient id="pGrad" x1="0%" y1="0%" x2="100%" y2="100%">
      <stop offset="0%" style="stop-color:#f472b6;stop-opacity:1" />
      <stop offset="50%" style="stop-color:#a855f7;stop-opacity:1" />
      <stop offset="100%" style="stop-color:#3b82f6;stop-opacity:1" />
    </linearGradient>
    <linearGradient id="pGrad2" x1="0%" y1="0%" x2="0%" y2="100%">
      <stop offset="0%" style="stop-color:#ffffff;stop-opacity:0.3" />
      <stop offset="100%" style="stop-color:#000000;stop-opacity:0.1" />
    </linearGradient>
    <filter id="cartoonGlow">
      <feGaussianBlur stdDeviation="2.5" result="coloredBlur"/>
      <feMerge>
        <feMergeNode in="coloredBlur"/>
        <feMergeNode in="SourceGraphic"/>
      </feMerge>
    </filter>
  </defs>
  
  <!-- Background with rounded corners -->
  <rect width="100" height="100" rx="20" fill="#0a0f1e"/>
  
  <!-- Anime-style Letter P -->
  
  <!-- Left vertical bar - chubby with anime style -->
  <rect x="20" y="20" width="10" height="60" rx="5" fill="url(#pGrad)" filter="url(#cartoonGlow)"/>
  <rect x="20" y="20" width="10" height="60" rx="5" fill="url(#pGrad2)"/>
  
  <!-- Top horizontal bar -->
  <rect x="20" y="20" width="48" height="10" rx="5" fill="url(#pGrad)" filter="url(#cartoonGlow)"/>
  <rect x="20" y="20" width="48" height="10" rx="5" fill="url(#pGrad2)"/>
  
  <!-- P loop - chubby and cute -->
  <path d="M 68 30
           Q 78 30, 85 38
           Q 92 46, 92 56
           Q 92 66, 85 74
           Q 78 82, 68 82
           L 30 82
           L 30 68
           L 68 68
           L 68 56
           L 30 56" 
        fill="url(#pGrad)" 
        filter="url(#cartoonGlow)"
        fill-rule="evenodd"/>
  <path d="M 68 30
           Q 78 30, 85 38
           Q 92 46, 92 56
           Q 92 66, 85 74
           Q 78 82, 68 82
           L 30 82
           L 30 68
           L 68 68
           L 68 56
           L 30 56" 
        fill="url(#pGrad2)"
        fill-rule="evenodd"/>
  
  <!-- Cute shine/gloss effect -->
  <ellipse cx="55" cy="35" rx="15" ry="12" fill="#ffffff" opacity="0.15"/>
</svg>

